# xmcd CD database file
#
# Track frame offsets:
#	150
#	17733
#	42865
#	77972
#	98667
#	120743
#	140870
#	158871
#	187591
#	216180
#	233428
#	237506
#	249146
#	267208
#	299629
#	321783
#	326970
#
# Disc length: 4569 seconds
#
# Revision: 0
# Processed by: cddbd v1.5.2PL0 Copyright (c) Steve Scherf et al.
# Submitted via: CDex 1.51
#
DISCID=ef11d711
DTITLE=The Oscar Peterson Trio - West Side Story and Plays Porgy and Bess
DYEAR=1900
DGENRE=Jazz
TTITLE0=Something's Coming
TTITLE1=Somewhere
TTITLE2=Jet Song
TTITLE3=Tonight
TTITLE4=Maria
TTITLE5=I Feel Pretty
TTITLE6=Reprise
TTITLE7=I Got Plenty O' Nuttin'
TTITLE8=I Wants To Stay Here
TTITLE9=Summertime
TTITLE10=Oh Dey's So Fresh And Fine (Strawberry Woman)
TTITLE11=Oh Lawd, I'm On My Way
TTITLE12=It Ain't Necessarily So
TTITLE13=There's A Boat Dat's Leavin' Soon For New York
TTITLE14=Bess, Oh Where's My Bess
TTITLE15=Here Come De Honey Man
TTITLE16=Bess, You Is My Woman Now
EXTD=
EXTT0=
EXTT1=
EXTT2=
EXTT3=
EXTT4=
EXTT5=
EXTT6=
EXTT7=
EXTT8=
EXTT9=
EXTT10=
EXTT11=
EXTT12=
EXTT13=
EXTT14=
EXTT15=
EXTT16=
PLAYORDER=
